<svg width="38" height="37" viewBox="0 0 38 37" fill="none" xmlns="http://www.w3.org/2000/svg">
<path d="M18.246 20.7852C20.582 20.7852 22.4756 18.8915 22.4756 16.5556C22.4756 14.2196 20.582 12.3259 18.246 12.3259C15.91 12.3259 14.0164 14.2196 14.0164 16.5556C14.0164 18.8915 15.91 20.7852 18.246 20.7852Z" stroke="#CF1B1B" stroke-width="0.714974" stroke-linecap="round" stroke-linejoin="round"/>
<path d="M26.0581 30.5238C26.0581 27.0167 22.5661 24.1567 18.2461 24.1567C13.9262 24.1567 10.4341 27.0016 10.4341 30.5238" stroke="#CF1B1B" stroke-width="0.714974" stroke-linecap="round" stroke-linejoin="round"/>
<path d="M32.6063 18.9338C32.6063 26.8361 26.2091 33.2332 18.3068 33.2332C10.4045 33.2332 4.00732 26.8361 4.00732 18.9338C4.00732 11.0314 10.4045 4.63428 18.3068 4.63428C20.2786 4.63428 22.1601 5.02562 23.8761 5.74812C23.6804 6.3502 23.575 6.9824 23.575 7.64469C23.575 8.7736 23.8911 9.84229 24.4481 10.7454C24.7491 11.2572 25.1404 11.7238 25.592 12.1151C26.6457 13.0785 28.0455 13.6655 29.5959 13.6655C30.2582 13.6655 30.8903 13.5601 31.4774 13.3494C32.1999 15.0653 32.6063 16.9619 32.6063 18.9338Z" stroke="#CF1B1B" stroke-width="0.714974" stroke-linecap="round" stroke-linejoin="round"/>
<path d="M35.6166 7.64486C35.6166 8.12652 35.5564 8.59313 35.436 9.04469C35.3005 9.64677 35.0597 10.2338 34.7436 10.7456C34.0211 11.9648 32.8621 12.9131 31.4773 13.3496C30.8903 13.5603 30.2581 13.6657 29.5958 13.6657C28.0454 13.6657 26.6456 13.0786 25.5919 12.1153C25.1404 11.7239 24.749 11.2574 24.448 10.7456C23.891 9.84246 23.575 8.77376 23.575 7.64486C23.575 6.98256 23.6803 6.35036 23.876 5.74828C24.162 4.87526 24.6437 4.0926 25.2758 3.44536C26.3746 2.31645 27.91 1.62402 29.5958 1.62402C31.3719 1.62402 32.9825 2.39171 34.0663 3.62598C35.0296 4.69467 35.6166 6.10954 35.6166 7.64486Z" stroke="#CF1B1B" stroke-width="0.714974" stroke-miterlimit="10" stroke-linecap="round" stroke-linejoin="round"/>
<path d="M31.8385 7.61475H27.353" stroke="#CF1B1B" stroke-width="0.714974" stroke-miterlimit="10" stroke-linecap="round" stroke-linejoin="round"/>
<path d="M29.5959 5.41699V9.91755" stroke="#CF1B1B" stroke-width="0.714974" stroke-miterlimit="10" stroke-linecap="round" stroke-linejoin="round"/>
</svg>
