<svg width="29" height="52" viewBox="0 0 29 52" fill="none" xmlns="http://www.w3.org/2000/svg">
<path fill-Rule="evenodd" clip-rule="evenodd" d="M13.6303 0.0465361C13.9172 3.28787 15.8373 3.47806 15.4578 7.55503C14.9481 10.5414 10.7719 10.4018 10.2754 7.55503C9.7203 5.03601 11.444 4.21657 12.3314 0C12.7939 3.86249 11.1457 3.86249 11.242 6.79022C11.5497 8.8985 14.3439 9.32745 14.5516 7.11192C14.9632 3.57518 13.011 2.99247 13.6303 0.0465361Z" fill="#4D4D4D"/>
<path fill-Rule="evenodd" clip-rule="evenodd" d="M7.15264 6.81451C7.71526 9.35781 8.79517 11.5754 11.0116 13.0686C12.7278 14.93 14.359 16.8016 13.3527 18.9281C13.4415 16.9331 12.0066 15.4298 10.2527 14.0296C7.63407 11.8242 6.64856 9.41244 7.15264 6.81451Z" fill="#4D4D4D"/>
<path fill-Rule="evenodd" clip-rule="evenodd" d="M12.1502 21.4835C12.6939 25.6535 10.8135 28.4922 6.71096 31.7234C-1.48471 39.2663 -1.04481 47.1916 11.3289 51.0278C12.2937 51.3151 12.3352 51.8311 11.261 51.7623C0.0445481 50.1841 -3.93717 40.7676 4.60965 32.3608C8.98218 28.3809 10.6644 24.5326 10.9872 20.749C10.9834 19.5917 11.7273 19.2275 12.1502 21.4835Z" fill="#CF1A1A"/>
<path fill-Rule="evenodd" clip-rule="evenodd" d="M16.8474 20.4981C16.3036 24.6682 18.184 27.5069 22.2885 30.7381C30.4842 38.281 30.0443 46.2063 17.6705 50.0425C16.7058 50.3298 16.6623 50.8457 17.7385 50.7769C28.9549 49.1967 32.9366 39.7823 24.3917 31.3734C20.0192 27.3936 18.337 23.5452 18.0141 19.7616C18.016 18.6063 17.2722 18.2421 16.8474 20.4981Z" fill="#CF1A1A"/>
</svg>
