<svg width="23" height="41" viewBox="0 0 23 41" fill="none" xmlns="http://www.w3.org/2000/svg">
<path fill-Rule="evenodd" clip-rule="evenodd" d="M10.7341 0.0366479C10.9601 2.58925 12.4722 2.73903 12.1733 5.9497C11.7719 8.30154 8.48306 8.1916 8.09204 5.9497C7.65491 3.96594 9.01237 3.32062 9.71116 0C10.0754 3.04177 8.77745 3.04177 8.85328 5.3474C9.09563 7.00771 11.2961 7.34551 11.4596 5.60075C11.7838 2.81551 10.2464 2.35662 10.7341 0.0366479Z" fill="#4D4D4D"/>
<path fill-Rule="evenodd" clip-rule="evenodd" d="M5.63293 5.36652C6.07599 7.3694 6.92645 9.11575 8.67195 10.2917C10.0235 11.7576 11.3081 13.2315 10.5156 14.9061C10.5855 13.335 9.4555 12.1512 8.07426 11.0485C6.01206 9.31174 5.23595 7.41242 5.63293 5.36652Z" fill="#4D4D4D"/>
<path fill-Rule="evenodd" clip-rule="evenodd" d="M9.56846 16.9186C9.99666 20.2025 8.51581 22.438 5.28498 24.9827C-1.16923 30.9228 -0.822803 37.1641 8.92171 40.1852C9.68146 40.4114 9.71417 40.8178 8.86818 40.7636C0.0350823 39.5207 -3.10059 32.1051 3.63017 25.4846C7.07361 22.3504 8.39835 19.3198 8.65259 16.3402C8.64962 15.4287 9.23542 15.1419 9.56846 16.9186Z" fill="#CF1A1A"/>
<path fill-Rule="evenodd" clip-rule="evenodd" d="M13.2673 16.1426C12.8391 19.4266 14.32 21.6621 17.5523 24.2067C24.0065 30.1469 23.6601 36.3882 13.9156 39.4092C13.1558 39.6355 13.1216 40.0418 13.9691 39.9876C22.8022 38.7432 25.9379 31.3292 19.2086 24.7071C15.7652 21.5729 14.4404 18.5422 14.1862 15.5626C14.1877 14.6528 13.6019 14.366 13.2673 16.1426Z" fill="#CF1A1A"/>
</svg>
