<svg width="225" height="58" viewBox="0 0 225 58" fill="none" xmlns="http://www.w3.org/2000/svg">
<g clip-path="url(#clip0_365_598)">
<path d="M45.7439 49.1605C44.4304 49.1605 43.2813 48.8515 42.2966 48.238C41.312 47.6245 40.5516 46.7986 40.0134 45.7646C39.4752 44.7306 39.2082 43.5851 39.2082 42.3258C39.2082 41.0365 39.4987 39.891 40.0818 38.887C40.6648 37.8831 41.4466 37.0958 42.4312 36.5273C43.4158 35.9588 44.5201 35.6735 45.7439 35.6735C47.5637 35.6735 49.0267 36.079 50.131 36.8877C50.4001 37.0679 50.5347 37.3361 50.5347 37.6965C50.5347 38.295 50.2356 38.5953 49.6397 38.5953C49.5799 38.5953 49.5052 38.5889 49.4155 38.5738C49.3258 38.5588 49.2361 38.5352 49.1463 38.5073C48.7576 38.2671 48.2877 38.029 47.7367 37.7887C47.1835 37.5484 46.5641 37.4283 45.8785 37.4283C44.5051 37.4283 43.3859 37.9002 42.5209 38.8441C41.6559 39.788 41.2223 40.9658 41.2223 42.373C41.2223 43.7524 41.6324 44.8829 42.4526 45.7667C43.2727 46.6506 44.3257 47.1675 45.6094 47.3177C46.4146 47.3477 47.1984 47.1976 47.9588 46.8672C48.7192 46.5369 49.3535 46.1336 49.8619 45.653C50.0413 45.5029 50.2356 45.4278 50.4428 45.4278C50.682 45.4278 50.8828 45.5265 51.0473 45.7195C51.2117 45.9147 51.2929 46.1314 51.2929 46.3717C51.2929 46.6119 51.1583 46.8973 50.8892 47.2255C50.2314 47.8261 49.4859 48.2981 48.6508 48.6413C47.8178 48.9888 46.8482 49.1605 45.7439 49.1605Z" fill="#CF1A1A"/>
<path d="M45.7439 49.3042C44.4111 49.3042 43.2257 48.9867 42.2219 48.3603C41.2201 47.736 40.4342 46.8865 39.8874 45.8311C39.3427 44.7821 39.0651 43.6022 39.0651 42.3258C39.0651 41.0172 39.3662 39.8374 39.9579 38.8141C40.5495 37.793 41.3568 36.9821 42.3607 36.4007C43.3646 35.8215 44.503 35.5276 45.7439 35.5276C47.5871 35.5276 49.0908 35.946 50.2164 36.7697C50.5218 36.9735 50.6777 37.2867 50.6777 37.6965C50.6777 38.3786 50.3189 38.739 49.6397 38.739C49.5735 38.739 49.4902 38.7304 49.3919 38.7133C49.2958 38.6961 49.1976 38.6725 49.1015 38.6403C48.6914 38.3915 48.2236 38.1534 47.679 37.9174C47.145 37.6857 46.5406 37.5699 45.8785 37.5699C44.5542 37.5699 43.4607 38.0311 42.6277 38.9385C41.7926 39.8502 41.3675 41.0044 41.3675 42.3709C41.3675 43.7073 41.7691 44.8164 42.5593 45.6659C43.3517 46.5218 44.3834 47.0281 45.6264 47.1718C46.3932 47.1976 47.1664 47.0517 47.9033 46.7321C48.6444 46.4124 49.2702 46.0113 49.7636 45.5458C50.2207 45.1639 50.7995 45.2004 51.1583 45.6251C51.3441 45.8461 51.4381 46.0971 51.4381 46.3695C51.4381 46.6463 51.295 46.9552 51.0024 47.3156C50.321 47.9398 49.5543 48.4246 48.7063 48.7743C47.8584 49.1261 46.861 49.3042 45.7439 49.3042ZM45.7439 35.8173C44.5521 35.8173 43.4628 36.0983 42.5038 36.6517C41.5448 37.2073 40.7716 37.9839 40.2056 38.96C39.6396 39.9382 39.3513 41.0709 39.3513 42.3258C39.3513 43.555 39.6161 44.6898 40.1415 45.6981C40.6648 46.7042 41.4166 47.5194 42.3735 48.1136C43.3325 48.7121 44.4667 49.0146 45.7439 49.0146C46.8225 49.0146 47.7836 48.843 48.5995 48.5083C49.4154 48.1715 50.1545 47.706 50.7952 47.1182C51.0259 46.8308 51.1519 46.5755 51.1519 46.3717C51.1519 46.1657 51.0814 45.9834 50.9404 45.8118C50.6799 45.5029 50.2805 45.4879 49.9558 45.7624C49.4432 46.2451 48.7896 46.6634 48.0186 46.9981C47.2411 47.3349 46.4295 47.485 45.6072 47.4593C44.283 47.3048 43.1915 46.7685 42.3522 45.8611C41.5106 44.9558 41.0835 43.7803 41.0835 42.3687C41.0835 40.9293 41.532 39.7087 42.4184 38.7412C43.309 37.7694 44.4731 37.2781 45.8806 37.2781C46.5812 37.2781 47.2262 37.4026 47.7943 37.6493C48.3496 37.8917 48.8302 38.1362 49.2232 38.3786C49.2766 38.3915 49.3578 38.413 49.4411 38.428C49.5201 38.4408 49.5863 38.4473 49.6418 38.4473C50.163 38.4473 50.3937 38.2134 50.3937 37.6922C50.3937 37.3811 50.2826 37.1559 50.0541 37.0036C48.9712 36.2163 47.5252 35.8173 45.7439 35.8173Z" fill="#CF1A1A"/>
<path d="M66.56 49.1605C65.2465 49.1605 64.0974 48.8515 63.1127 48.238C62.1281 47.6245 61.3677 46.7986 60.8295 45.7646C60.2913 44.7306 60.0243 43.5851 60.0243 42.3258C60.0243 41.0365 60.3148 39.891 60.8979 38.887C61.4788 37.8831 62.2627 37.0958 63.2473 36.5273C64.2319 35.9588 65.3362 35.6735 66.56 35.6735C68.3798 35.6735 69.8428 36.079 70.9471 36.8877C71.2162 37.0679 71.3508 37.3361 71.3508 37.6965C71.3508 38.295 71.0517 38.5953 70.4558 38.5953C70.396 38.5953 70.3213 38.5889 70.2316 38.5738C70.1419 38.5588 70.0522 38.5352 69.9624 38.5073C69.5737 38.2671 69.1038 38.029 68.5528 37.7887C67.9996 37.5484 67.3802 37.4283 66.6946 37.4283C65.3212 37.4283 64.202 37.9002 63.337 38.8441C62.472 39.788 62.0384 40.9658 62.0384 42.373C62.0384 43.7524 62.4485 44.8829 63.2687 45.7667C64.0888 46.6506 65.1418 47.1675 66.4255 47.3177C67.2307 47.3477 68.0145 47.1976 68.7749 46.8672C69.5353 46.5369 70.1696 46.1336 70.678 45.653C70.8574 45.5029 71.0517 45.4278 71.2589 45.4278C71.4981 45.4278 71.6989 45.5265 71.8634 45.7195C72.0278 45.9147 72.109 46.1314 72.109 46.3717C72.109 46.6119 71.9744 46.8973 71.7053 47.2255C71.0475 47.8261 70.302 48.2981 69.4669 48.6413C68.6339 48.9888 67.6621 49.1605 66.56 49.1605Z" fill="#CF1A1A"/>
<path d="M66.56 49.3042C65.2272 49.3042 64.0418 48.9867 63.038 48.3603C62.0363 47.736 61.2503 46.8865 60.7035 45.8311C60.1588 44.7821 59.8812 43.6022 59.8812 42.3258C59.8812 41.0172 60.1823 39.8374 60.774 38.8141C61.3656 37.793 62.1729 36.9821 63.1768 36.4007C64.1807 35.8215 65.3191 35.5276 66.56 35.5276C68.4032 35.5276 69.9069 35.946 71.0325 36.7697C71.3379 36.9735 71.4938 37.2867 71.4938 37.6965C71.4938 38.3786 71.135 38.739 70.4558 38.739C70.3896 38.739 70.3063 38.7304 70.208 38.7133C70.1119 38.6961 70.0137 38.6725 69.9176 38.6403C69.5075 38.3915 69.0397 38.1534 68.4951 37.9174C67.9611 37.6857 67.3567 37.5699 66.6946 37.5699C65.3703 37.5699 64.2768 38.0311 63.4438 38.9385C62.6087 39.8502 62.1836 41.0044 62.1836 42.3709C62.1836 43.7073 62.5852 44.8164 63.3754 45.6659C64.1678 46.5218 65.1995 47.0281 66.4425 47.1718C67.2093 47.1976 67.9825 47.0517 68.7194 46.7321C69.4605 46.4124 70.0863 46.0113 70.5797 45.5458C71.0368 45.1639 71.6156 45.2004 71.9744 45.6251C72.1602 45.8461 72.2542 46.0971 72.2542 46.3695C72.2542 46.6463 72.1111 46.9552 71.8185 47.3156C71.1371 47.9398 70.3704 48.4246 69.5224 48.7743C68.6724 49.1261 67.6749 49.3042 66.56 49.3042ZM66.56 35.8173C65.3682 35.8173 64.2789 36.0983 63.3199 36.6517C62.3609 37.2073 61.5877 37.9839 61.0217 38.96C60.4557 39.9382 60.1695 41.0709 60.1695 42.3258C60.1695 43.555 60.4344 44.6898 60.9598 45.6981C61.4831 46.7042 62.2349 47.5194 63.1917 48.1136C64.1507 48.7121 65.2849 49.0146 66.5621 49.0146C67.6407 49.0146 68.6019 48.843 69.4178 48.5083C70.2337 48.1715 70.9727 47.706 71.6134 47.1182C71.8441 46.8308 71.9701 46.5755 71.9701 46.3717C71.9701 46.1657 71.8997 45.9834 71.7587 45.8118C71.4981 45.5029 71.0987 45.4879 70.774 45.7624C70.2614 46.2451 69.6079 46.6634 68.8368 46.9981C68.0594 47.3349 67.2477 47.485 66.4254 47.4593C65.1012 47.3048 64.0098 46.7685 63.1704 45.8611C62.3289 44.9558 61.9017 43.7803 61.9017 42.3687C61.9017 40.9293 62.3502 39.7087 63.2366 38.7412C64.1273 37.7694 65.2913 37.2781 66.6988 37.2781C67.3994 37.2781 68.0444 37.4026 68.6126 37.6493C69.1679 37.8917 69.6485 38.1362 70.0415 38.3786C70.0948 38.3915 70.176 38.413 70.2593 38.428C70.3383 38.4408 70.4046 38.4473 70.4601 38.4473C70.9812 38.4473 71.2119 38.2134 71.2119 37.6922C71.2119 37.3811 71.1008 37.1559 70.8723 37.0036C69.7873 36.2163 68.3392 35.8173 66.56 35.8173Z" fill="#CF1A1A"/>
<path d="M55.5133 38.1191C55.1417 38.1191 54.8448 38.0075 54.6227 37.7866C54.4006 37.5656 54.2916 37.2782 54.2916 36.9263C54.2916 36.5531 54.4027 36.2549 54.6227 36.0318C54.8448 35.8108 55.1417 35.6993 55.5133 35.6993C55.885 35.6993 56.1819 35.8108 56.404 36.0318C56.624 36.2549 56.735 36.5531 56.735 36.9263C56.735 37.2782 56.624 37.5635 56.404 37.7866C56.1819 38.0075 55.885 38.1191 55.5133 38.1191ZM55.6479 49.4908C55.3489 49.4908 55.1032 49.3921 54.9089 49.1991C54.7145 49.0039 54.6184 48.7572 54.6184 48.4568V40.4509C54.6184 40.1206 54.7231 39.8739 54.9324 39.7087C55.1417 39.5435 55.3788 39.462 55.6479 39.462C55.8871 39.462 56.1092 39.5456 56.3186 39.7087C56.5279 39.8739 56.6325 40.1206 56.6325 40.4509V48.4568C56.6325 48.7572 56.5428 49.0039 56.3634 49.1991C56.184 49.3921 55.9448 49.4908 55.6479 49.4908Z" fill="#CF1A1A"/>
<path d="M55.6479 49.6346C55.3104 49.6346 55.0285 49.523 54.8085 49.2999C54.5885 49.0789 54.4753 48.7958 54.4753 48.4568V40.4509C54.4753 40.0777 54.5992 39.788 54.8426 39.595C55.2869 39.2453 55.9127 39.2045 56.4082 39.595C56.6517 39.7902 56.7756 40.0777 56.7756 40.4509V48.4568C56.7756 48.7915 56.6731 49.0747 56.468 49.2956C56.2609 49.5209 55.9853 49.6346 55.6479 49.6346ZM55.6479 39.6057C55.4108 39.6057 55.2057 39.6765 55.0199 39.8224C54.8469 39.9597 54.7615 40.1656 54.7615 40.4509V48.4568C54.7615 48.7207 54.8427 48.9288 55.0114 49.0961C55.178 49.2634 55.3873 49.3471 55.6479 49.3471C55.9063 49.3471 56.1071 49.2656 56.2587 49.1004C56.4125 48.9309 56.4894 48.7207 56.4894 48.4568V40.4509C56.4894 40.1656 56.404 39.9597 56.231 39.8224C56.0451 39.6765 55.8529 39.6057 55.6479 39.6057ZM55.5133 38.2628C55.1032 38.2628 54.77 38.1362 54.5223 37.8874C54.2745 37.6385 54.1485 37.3146 54.1485 36.9263C54.1485 36.5145 54.2745 36.1798 54.5223 35.9288C54.77 35.68 55.1032 35.5534 55.5133 35.5534C55.9234 35.5534 56.2566 35.68 56.5043 35.9288C56.7521 36.1798 56.8781 36.5145 56.8781 36.9263C56.8781 37.3146 56.7521 37.6385 56.5043 37.8874C56.2566 38.1362 55.9213 38.2628 55.5133 38.2628ZM55.5133 35.8409C55.178 35.8409 54.9195 35.9353 54.7252 36.1326C54.5308 36.3278 54.4347 36.5874 54.4347 36.9263C54.4347 37.2395 54.5287 37.4884 54.7252 37.6836C54.9195 37.8788 55.178 37.9753 55.5133 37.9753C55.8486 37.9753 56.1071 37.881 56.3036 37.6836C56.4979 37.4862 56.5941 37.2395 56.5941 36.9263C56.5941 36.5895 56.5001 36.33 56.3036 36.1326C56.1071 35.9374 55.8486 35.8409 55.5133 35.8409Z" fill="#CF1A1A"/>
<path d="M77.0642 49.2763C76.7651 49.2763 76.5195 49.1776 76.3251 48.9845C76.1308 48.7893 76.0347 48.5426 76.0347 48.2423V30.4821C76.0347 30.1517 76.1393 29.905 76.3486 29.7399C76.5558 29.5747 76.7972 29.4932 77.0642 29.4932C77.3034 29.4932 77.5255 29.5768 77.7348 29.7399C77.9441 29.905 78.0488 30.1517 78.0488 30.4821V48.2423C78.0488 48.5426 77.9591 48.7893 77.7797 48.9845C77.6024 49.1776 77.3632 49.2763 77.0642 49.2763Z" fill="#4D4D4D"/>
<path d="M77.0641 49.42C76.7288 49.42 76.4447 49.3085 76.2247 49.0854C76.0026 48.8644 75.8915 48.5791 75.8915 48.2423V30.4821C75.8915 30.1089 76.0154 29.8193 76.2589 29.6262C76.7032 29.2765 77.329 29.2358 77.8245 29.6262C78.0701 29.8214 78.194 30.1089 78.194 30.4821V48.2423C78.194 48.577 78.0915 48.8601 77.8864 49.0811C77.6793 49.3063 77.4037 49.42 77.0641 49.42ZM77.0641 29.6369C76.827 29.6369 76.6199 29.7077 76.4362 29.8536C76.2632 29.9909 76.1777 30.1968 76.1777 30.4821V48.2423C76.1777 48.5062 76.2589 48.7143 76.4276 48.8816C76.5942 49.0489 76.8036 49.1326 77.0641 49.1326C77.3226 49.1326 77.5233 49.0511 77.675 48.8859C77.8309 48.7164 77.9057 48.5062 77.9057 48.2423V30.4821C77.9057 30.1968 77.8202 29.9909 77.6472 29.8536C77.4614 29.7077 77.2713 29.6369 77.0641 29.6369Z" fill="#4D4D4D"/>
<path d="M159.133 49.2763C158.834 49.2763 158.588 49.1777 158.394 48.9846C158.199 48.7894 158.103 48.5427 158.103 48.2423V30.4822C158.103 30.1518 158.208 29.9051 158.417 29.7399C158.624 29.5747 158.866 29.4932 159.133 29.4932C159.372 29.4932 159.594 29.5769 159.803 29.7399C160.013 29.9051 160.117 30.1518 160.117 30.4822V48.2423C160.117 48.5427 160.028 48.7894 159.848 48.9846C159.669 49.1777 159.43 49.2763 159.133 49.2763Z" fill="#4D4D4D"/>
<path d="M159.133 49.4201C158.797 49.4201 158.513 49.3085 158.293 49.0854C158.071 48.8645 157.96 48.5792 157.96 48.2424V30.4822C157.96 30.1089 158.084 29.8193 158.327 29.6263C158.772 29.2766 159.398 29.2358 159.893 29.6263C160.139 29.8215 160.263 30.1089 160.263 30.4822V48.2424C160.263 48.577 160.16 48.8602 159.955 49.0812C159.748 49.3064 159.47 49.4201 159.133 49.4201ZM159.133 29.637C158.896 29.637 158.688 29.7078 158.505 29.8536C158.332 29.9909 158.246 30.1969 158.246 30.4822V48.2424C158.246 48.5062 158.327 48.7143 158.496 48.8816C158.663 49.049 158.872 49.1326 159.133 49.1326C159.391 49.1326 159.592 49.0511 159.744 48.8859C159.899 48.7165 159.974 48.5062 159.974 48.2424V30.4822C159.974 30.1969 159.889 29.9909 159.716 29.8536C159.53 29.7078 159.34 29.637 159.133 29.637Z" fill="#4D4D4D"/>
<path d="M87.7627 49.2763C85.913 49.2763 84.3902 48.6392 83.1962 47.3649C82.0023 46.0907 81.4064 44.4496 81.4064 42.4417C81.4064 40.4938 82.0023 38.8978 83.1962 37.6536C84.3902 36.4093 85.9109 35.7872 87.7627 35.7872C89.6721 35.7872 91.21 36.4608 92.374 37.8102V37.0014C92.374 36.6711 92.4787 36.4244 92.688 36.2592C92.8973 36.094 93.1194 36.0125 93.3586 36.0125C93.6278 36.0125 93.8648 36.0961 94.0742 36.2592C94.2835 36.4244 94.3881 36.6711 94.3881 37.0014V48.2423C94.3881 48.5426 94.2899 48.7893 94.0976 48.9846C93.9033 49.1798 93.6577 49.2763 93.3586 49.2763C93.0596 49.2763 92.8204 49.1776 92.6431 48.9846C92.4637 48.7893 92.374 48.5426 92.374 48.2423V47.1633C91.8358 47.824 91.1715 48.3388 90.3813 48.7143C89.591 49.0875 88.7174 49.2763 87.7627 49.2763ZM87.7627 47.4336C89.1659 47.4336 90.2851 47.0153 91.1203 46.1743C91.9554 45.3356 92.374 44.0913 92.374 42.4417C92.374 40.8542 91.9554 39.655 91.1203 38.8442C90.2851 38.0354 89.1659 37.63 87.7627 37.63C86.479 37.63 85.441 38.0955 84.6507 39.0244C83.8605 39.9532 83.4653 41.0923 83.4653 42.4417C83.4653 43.8511 83.8605 45.0352 84.6507 45.9941C85.4431 46.953 86.479 47.4336 87.7627 47.4336Z" fill="#4D4D4D"/>
<path d="M93.3586 49.42C93.0212 49.42 92.7435 49.3063 92.5363 49.0811C92.3334 48.8601 92.2287 48.577 92.2287 48.2423V47.5473C91.7268 48.0836 91.1288 48.519 90.441 48.8451C89.6337 49.227 88.7323 49.42 87.7605 49.42C85.8767 49.42 84.3047 48.7614 83.0894 47.4636C81.8762 46.17 81.259 44.4796 81.259 42.4417C81.259 40.4638 81.8741 38.8184 83.0894 37.5527C84.3068 36.2849 85.8767 35.6435 87.7584 35.6435C89.5675 35.6435 91.069 36.2484 92.2266 37.4412V37.0014C92.2266 36.626 92.3505 36.3385 92.594 36.1455C93.0874 35.755 93.711 35.7937 94.1596 36.1455C94.4031 36.3385 94.5269 36.626 94.5269 37.0014V48.2423C94.5269 48.5791 94.4159 48.8644 94.1937 49.0854C93.9759 49.3085 93.6939 49.42 93.3586 49.42ZM92.5171 46.76V48.2423C92.5171 48.5062 92.5918 48.7185 92.7478 48.8859C92.8994 49.051 93.1002 49.1326 93.3586 49.1326C93.6192 49.1326 93.8264 49.051 93.9951 48.8816C94.1617 48.7142 94.2429 48.504 94.2429 48.2423V37.0014C94.2429 36.7161 94.1574 36.5102 93.9844 36.3729C93.6363 36.0983 93.1707 36.0597 92.7734 36.3729C92.6004 36.5102 92.5149 36.7161 92.5149 37.0014V38.1963L92.2629 37.9045C91.133 36.5938 89.6187 35.931 87.7605 35.931C85.96 35.931 84.4585 36.5445 83.2987 37.7522C82.1368 38.9621 81.5473 40.5389 81.5473 42.4395C81.5473 44.4002 82.1368 46.0242 83.2987 47.2641C84.4585 48.5019 85.9579 49.1304 87.7605 49.1304C88.6896 49.1304 89.5504 48.9459 90.3171 48.5812C91.0861 48.2166 91.7396 47.7081 92.2586 47.0689L92.5171 46.76ZM87.7627 47.5773C86.4406 47.5773 85.3556 47.0753 84.5418 46.0864C83.7323 45.106 83.3222 43.8811 83.3222 42.4438C83.3222 41.0666 83.7323 39.8846 84.5418 38.9342C85.3577 37.9753 86.4406 37.4905 87.7627 37.4905C89.1958 37.4905 90.3599 37.9131 91.2185 38.7455C92.0792 39.58 92.5149 40.8242 92.5149 42.446C92.5149 44.1256 92.0792 45.4149 91.2185 46.2794C90.362 47.1397 89.198 47.5773 87.7627 47.5773ZM87.7627 37.7758C86.5281 37.7758 85.5179 38.2285 84.7596 39.1187C83.995 40.0176 83.6084 41.1352 83.6084 42.4417C83.6084 43.8103 83.9971 44.9752 84.7618 45.9019C85.52 46.8222 86.5281 47.2877 87.7627 47.2877C89.1189 47.2877 90.2146 46.878 91.0177 46.0714C91.8208 45.2626 92.2287 44.042 92.2287 42.4417C92.2287 40.9014 91.8229 39.7258 91.0198 38.9493C90.2168 38.1705 89.1211 37.7758 87.7627 37.7758Z" fill="#4D4D4D"/>
<path d="M104.818 49.2763C103.863 49.2763 102.989 49.0897 102.199 48.7143C101.409 48.341 100.744 47.824 100.206 47.1633V48.0171C100.206 48.3174 100.116 48.5641 99.9371 48.7593C99.7577 48.9546 99.5184 49.0511 99.2216 49.0511C98.9225 49.0511 98.6769 48.9546 98.4826 48.7593C98.2882 48.5641 98.1921 48.3174 98.1921 48.0171V30.4822C98.1921 30.1518 98.2967 29.9051 98.506 29.7399C98.7132 29.5747 98.9546 29.4932 99.2216 29.4932C99.4608 29.4932 99.6829 29.5769 99.8922 29.7399C100.102 29.9051 100.206 30.1518 100.206 30.4822V37.8102C101.37 36.4609 102.906 35.7873 104.818 35.7873C106.667 35.7873 108.19 36.4094 109.384 37.6536C110.578 38.8978 111.174 40.4939 111.174 42.4417C111.174 44.4496 110.576 46.0907 109.384 47.365C108.19 48.6392 106.667 49.2763 104.818 49.2763ZM104.818 47.4336C106.099 47.4336 107.137 46.9552 107.929 45.9942C108.72 45.0353 109.115 43.8511 109.115 42.4417C109.115 41.0924 108.72 39.9533 107.929 39.0244C107.139 38.0955 106.101 37.63 104.818 37.63C103.444 37.63 102.334 38.0354 101.483 38.8442C100.633 39.6529 100.208 40.8521 100.208 42.4417C100.208 44.0914 100.633 45.3334 101.483 46.1744C102.334 47.0131 103.444 47.4336 104.818 47.4336Z" fill="#4D4D4D"/>
<path d="M104.817 49.42C103.846 49.42 102.944 49.227 102.137 48.843C101.451 48.5191 100.851 48.0836 100.349 47.5451V48.0149C100.349 48.3496 100.247 48.6328 100.042 48.8537C99.8367 49.079 99.559 49.1927 99.2194 49.1927C98.8819 49.1927 98.6 49.0811 98.38 48.858C98.1579 48.637 98.0468 48.3517 98.0468 48.0149V30.48C98.0468 30.1067 98.1707 29.8171 98.4142 29.6241C98.8584 29.2744 99.4843 29.2336 99.9798 29.6241C100.225 29.8193 100.349 30.1067 100.349 30.48V37.4391C101.505 36.2463 103.006 35.6414 104.817 35.6414C106.699 35.6414 108.269 36.2849 109.486 37.5506C110.702 38.8163 111.317 40.4617 111.317 42.4395C111.317 44.4775 110.702 46.1658 109.486 47.4615C108.271 48.7615 106.701 49.42 104.817 49.42ZM100.063 46.76L100.317 47.0732C100.838 47.7125 101.492 48.2209 102.259 48.5856C103.026 48.9502 103.886 49.1347 104.815 49.1347C106.616 49.1347 108.117 48.5062 109.277 47.2684C110.439 46.0285 111.029 44.4045 111.029 42.4438C111.029 40.5432 110.439 38.9664 109.277 37.7565C108.117 36.5466 106.616 35.9353 104.815 35.9353C102.957 35.9353 101.443 36.5981 100.313 37.9089L100.061 38.2006V30.4864C100.061 30.2011 99.9755 29.9952 99.8025 29.8579C99.4031 29.5447 98.9375 29.5854 98.5915 29.8579C98.4185 29.9952 98.333 30.2011 98.333 30.4864V48.0214C98.333 48.2852 98.4142 48.4933 98.5829 48.6606C98.7495 48.828 98.9588 48.9116 99.2194 48.9116C99.4778 48.9116 99.6786 48.8301 99.8303 48.6649C99.9862 48.4955 100.061 48.2852 100.061 48.0214V46.76H100.063ZM104.817 47.5773C103.412 47.5773 102.257 47.1397 101.383 46.2773C100.507 45.4128 100.065 44.1235 100.065 42.4417C100.065 40.8199 100.509 39.5735 101.385 38.7391C102.259 37.9067 103.414 37.4862 104.82 37.4862C106.14 37.4862 107.222 37.9711 108.041 38.93C108.85 39.8824 109.26 41.0623 109.26 42.4395C109.26 43.8768 108.85 45.1017 108.041 46.0821C107.225 47.0753 106.14 47.5773 104.817 47.5773ZM104.817 37.7759C103.489 37.7759 102.4 38.1706 101.582 38.9493C100.766 39.7258 100.351 40.9014 100.351 42.4417C100.351 44.042 100.766 45.2626 101.584 46.0714C102.402 46.8801 103.491 47.2899 104.817 47.2899C106.05 47.2899 107.06 46.8222 107.818 45.904C108.583 44.9752 108.972 43.8125 108.972 42.4438C108.972 41.1374 108.585 40.0197 107.821 39.1209C107.06 38.2285 106.05 37.7759 104.817 37.7759Z" fill="#4D4D4D"/>
<path d="M120.888 49.2763C119.634 49.2763 118.515 48.976 117.53 48.3775C116.546 47.7789 115.762 46.9616 115.181 45.9276C114.6 44.8936 114.307 43.7331 114.307 42.4438C114.307 41.1545 114.598 40.0154 115.181 39.0265C115.762 38.0375 116.546 37.2503 117.53 36.6668C118.515 36.0811 119.634 35.7894 120.888 35.7894C122.142 35.7894 123.267 36.0811 124.267 36.6668C125.266 37.2503 126.057 38.0375 126.64 39.0265C127.221 40.0154 127.513 41.1545 127.513 42.4438C127.513 43.7331 127.223 44.8936 126.64 45.9276C126.057 46.9616 125.266 47.7789 124.267 48.3775C123.267 48.976 122.142 49.2763 120.888 49.2763ZM120.888 47.4336C122.291 47.4336 123.41 46.9552 124.245 45.9941C125.08 45.0352 125.499 43.8511 125.499 42.4417C125.499 41.0923 125.08 39.9532 124.245 39.0243C123.41 38.0955 122.291 37.63 120.888 37.63C119.514 37.63 118.419 38.0955 117.599 39.0243C116.776 39.9532 116.368 41.0923 116.368 42.4417C116.368 43.8511 116.778 45.0352 117.599 45.9941C118.417 46.953 119.514 47.4336 120.888 47.4336Z" fill="#4D4D4D"/>
<path d="M120.888 49.42C119.615 49.42 118.459 49.1111 117.455 48.4997C116.454 47.8905 115.646 47.0496 115.055 45.9963C114.463 44.9451 114.164 43.7481 114.164 42.4417C114.164 41.1331 114.465 39.9597 115.057 38.9514C115.648 37.9453 116.456 37.1344 117.458 36.5402C118.459 35.9438 119.615 35.6435 120.888 35.6435C122.161 35.6435 123.323 35.946 124.339 36.5402C125.356 37.1344 126.172 37.9453 126.763 38.9514C127.355 39.9575 127.656 41.1331 127.656 42.4417C127.656 43.7502 127.357 44.9451 126.766 45.9963C126.174 47.0474 125.358 47.8905 124.341 48.4997C123.323 49.1111 122.161 49.42 120.888 49.42ZM120.888 35.931C119.666 35.931 118.562 36.2184 117.603 36.7869C116.644 37.3554 115.871 38.1341 115.302 39.0973C114.736 40.0605 114.45 41.1846 114.45 42.4417C114.45 43.6988 114.739 44.8464 115.305 45.8547C115.873 46.8629 116.646 47.6695 117.605 48.253C118.562 48.8365 119.668 49.1326 120.888 49.1326C122.107 49.1326 123.22 48.8365 124.194 48.253C125.168 47.6695 125.948 46.8629 126.516 45.8547C127.082 44.8464 127.37 43.6988 127.37 42.4417C127.37 41.1846 127.084 40.0605 126.518 39.0973C125.952 38.1341 125.17 37.3575 124.196 36.789C123.222 36.2206 122.109 35.931 120.888 35.931ZM120.888 47.5773C119.476 47.5773 118.333 47.0753 117.49 46.0885C116.65 45.1082 116.223 43.8811 116.223 42.4417C116.223 41.0623 116.65 39.8803 117.49 38.93C118.335 37.9732 119.478 37.4884 120.888 37.4884C122.325 37.4884 123.491 37.9732 124.352 38.93C125.209 39.8824 125.642 41.0644 125.642 42.4438C125.642 43.8811 125.209 45.1082 124.352 46.0907C123.494 47.0753 122.327 47.5773 120.888 47.5773ZM120.888 37.7758C119.564 37.7758 118.493 38.2285 117.705 39.1209C116.913 40.0176 116.511 41.1352 116.511 42.4417C116.511 43.8103 116.913 44.973 117.707 45.8997C118.496 46.8222 119.566 47.2877 120.89 47.2877C122.244 47.2877 123.335 46.82 124.139 45.8976C124.946 44.9709 125.356 43.8082 125.356 42.4417C125.356 41.1374 124.946 40.0197 124.139 39.1209C123.333 38.2285 122.24 37.7758 120.888 37.7758Z" fill="#4D4D4D"/>
<path d="M132.883 42.4867V48.2423C132.883 48.5426 132.793 48.7893 132.614 48.9846C132.434 49.1798 132.195 49.2763 131.898 49.2763C131.599 49.2763 131.353 49.1776 131.159 48.9846C130.965 48.7893 130.869 48.5426 130.869 48.2423V37.0014C130.869 36.6711 130.973 36.4244 131.183 36.2592C131.39 36.094 131.631 36.0125 131.898 36.0125C132.137 36.0125 132.359 36.0961 132.569 36.2592C132.778 36.4244 132.883 36.6711 132.883 37.0014V38.0805C133.242 37.3318 133.837 36.7612 134.673 36.3707C135.508 35.9824 136.298 35.7872 137.046 35.7872C137.494 35.7872 137.94 35.8623 138.389 36.0125C138.688 36.1026 138.904 36.2678 139.038 36.508C139.173 36.7483 139.194 37.0186 139.104 37.3168C138.895 37.9174 138.491 38.1555 137.896 38.0354C137.357 37.8852 136.911 37.8102 136.552 37.8102C135.388 37.8102 134.485 38.2542 133.844 39.1359C133.203 40.0219 132.883 41.1374 132.883 42.4867Z" fill="#4D4D4D"/>
<path d="M131.898 49.42C131.563 49.42 131.279 49.3085 131.059 49.0854C130.837 48.8644 130.725 48.5791 130.725 48.2423V37.0014C130.725 36.626 130.849 36.3385 131.095 36.1455C131.539 35.7937 132.163 35.7551 132.658 36.1455C132.904 36.3385 133.028 36.626 133.028 37.0014V37.5442C133.404 36.995 133.936 36.5574 134.615 36.2399C135.467 35.843 136.285 35.6414 137.048 35.6414C137.507 35.6414 137.975 35.7186 138.436 35.873C138.765 35.9717 139.013 36.1626 139.164 36.4329C139.318 36.7075 139.344 37.0186 139.243 37.3554C139.008 38.0268 138.532 38.31 137.87 38.1748C137.336 38.0268 136.898 37.9517 136.554 37.9517C135.444 37.9517 134.572 38.3786 133.961 39.2196C133.342 40.0734 133.026 41.1717 133.026 42.4846V48.2402C133.026 48.5748 132.923 48.858 132.718 49.0789C132.513 49.3063 132.238 49.42 131.898 49.42ZM131.898 36.1562C131.663 36.1562 131.454 36.2291 131.27 36.3729C131.097 36.5102 131.012 36.7161 131.012 37.0014V48.2423C131.012 48.5062 131.093 48.7143 131.262 48.8816C131.428 49.0489 131.637 49.1326 131.898 49.1326C132.156 49.1326 132.357 49.0511 132.509 48.8859C132.665 48.7164 132.74 48.5062 132.74 48.2423V42.4867C132.74 41.1116 133.073 39.9575 133.728 39.0522C134.397 38.1319 135.345 37.6664 136.552 37.6664C136.919 37.6664 137.385 37.7437 137.934 37.896C138.451 38.0032 138.784 37.8016 138.97 37.2674C139.047 37.0121 139.028 36.7826 138.912 36.5767C138.797 36.3686 138.611 36.2291 138.346 36.1498C137.91 36.0039 137.473 35.931 137.045 35.931C136.326 35.931 135.546 36.1219 134.732 36.5016C133.931 36.8749 133.353 37.4283 133.011 38.1427L132.737 38.7133V37.0014C132.737 36.7161 132.652 36.5102 132.479 36.3729C132.295 36.227 132.105 36.1562 131.898 36.1562Z" fill="#4D4D4D"/>
<path d="M146.849 49.2763C144.999 49.2763 143.477 48.6392 142.283 47.3649C141.089 46.0907 140.493 44.4496 140.493 42.4417C140.493 40.4938 141.089 38.8978 142.283 37.6536C143.477 36.4093 144.997 35.7872 146.849 35.7872C148.759 35.7872 150.296 36.4608 151.46 37.8102V37.0014C151.46 36.6711 151.565 36.4244 151.774 36.2592C151.984 36.094 152.206 36.0125 152.445 36.0125C152.714 36.0125 152.951 36.0961 153.161 36.2592C153.37 36.4244 153.475 36.6711 153.475 37.0014V48.2423C153.475 48.5426 153.376 48.7893 153.184 48.9846C152.99 49.1798 152.744 49.2763 152.445 49.2763C152.146 49.2763 151.907 49.1776 151.73 48.9846C151.55 48.7893 151.46 48.5426 151.46 48.2423V47.1633C150.922 47.824 150.258 48.3388 149.468 48.7143C148.677 49.0875 147.804 49.2763 146.849 49.2763ZM146.849 47.4336C148.252 47.4336 149.372 47.0153 150.207 46.1743C151.042 45.3356 151.46 44.0913 151.46 42.4417C151.46 40.8542 151.042 39.655 150.207 38.8442C149.372 38.0354 148.252 37.63 146.849 37.63C145.565 37.63 144.527 38.0955 143.737 39.0244C142.947 39.9532 142.552 41.0923 142.552 42.4417C142.552 43.8511 142.947 45.0352 143.737 45.9941C144.53 46.953 145.565 47.4336 146.849 47.4336Z" fill="#4D4D4D"/>
<path d="M152.445 49.42C152.108 49.42 151.83 49.3063 151.623 49.0811C151.42 48.8601 151.315 48.577 151.315 48.2423V47.5473C150.813 48.0836 150.215 48.519 149.527 48.8451C148.72 49.227 147.819 49.42 146.847 49.42C144.963 49.42 143.391 48.7614 142.176 47.4636C140.963 46.17 140.345 44.4796 140.345 42.4417C140.345 40.4638 140.961 38.8184 142.176 37.5527C143.393 36.2849 144.963 35.6435 146.845 35.6435C148.654 35.6435 150.155 36.2484 151.313 37.4412V37.0014C151.313 36.626 151.437 36.3385 151.68 36.1455C152.174 35.755 152.797 35.7937 153.246 36.1455C153.489 36.3385 153.613 36.626 153.613 37.0014V48.2423C153.613 48.5791 153.502 48.8644 153.28 49.0854C153.062 49.3085 152.78 49.42 152.445 49.42ZM151.604 46.76V48.2423C151.604 48.5062 151.678 48.7185 151.834 48.8859C151.986 49.051 152.187 49.1326 152.445 49.1326C152.706 49.1326 152.913 49.051 153.082 48.8816C153.248 48.7142 153.329 48.504 153.329 48.2423V37.0014C153.329 36.7161 153.244 36.5102 153.071 36.3729C152.723 36.0983 152.257 36.0597 151.86 36.3729C151.687 36.5102 151.601 36.7161 151.601 37.0014V38.1963L151.349 37.9045C150.219 36.5938 148.705 35.931 146.847 35.931C145.046 35.931 143.545 36.5445 142.385 37.7522C141.223 38.9621 140.634 40.5389 140.634 42.4395C140.634 44.4002 141.223 46.0242 142.385 47.2641C143.545 48.5019 145.044 49.1304 146.847 49.1304C147.776 49.1304 148.637 48.9459 149.404 48.5812C150.172 48.2166 150.826 47.7081 151.345 47.0689L151.604 46.76ZM146.849 47.5773C145.527 47.5773 144.442 47.0753 143.628 46.0864C142.819 45.106 142.409 43.8811 142.409 42.4438C142.409 41.0666 142.819 39.8846 143.63 38.9342C144.446 37.9753 145.529 37.4905 146.851 37.4905C148.284 37.4905 149.448 37.9131 150.307 38.7455C151.168 39.58 151.604 40.8242 151.604 42.446C151.604 44.1256 151.168 45.4149 150.307 46.2794C149.448 47.1397 148.284 47.5773 146.849 47.5773ZM146.849 37.7758C145.615 37.7758 144.604 38.2285 143.846 39.1187C143.081 40.0176 142.695 41.1352 142.695 42.4417C142.695 43.8103 143.084 44.9752 143.848 45.9019C144.606 46.8222 145.615 47.2877 146.849 47.2877C148.205 47.2877 149.301 46.878 150.104 46.0714C150.907 45.2626 151.315 44.042 151.315 42.4417C151.315 40.9014 150.909 39.7258 150.106 38.9493C149.303 38.1705 148.207 37.7758 146.849 37.7758Z" fill="#4D4D4D"/>
<path d="M157.727 36.2377H156.608C156.369 36.2377 156.159 36.3278 155.982 36.508C155.803 36.6882 155.713 36.8985 155.713 37.1366C155.713 37.3768 155.803 37.5871 155.982 37.7651C156.161 37.9453 156.369 38.0354 156.608 38.0354H157.727H160.636H161.473C161.713 38.0354 161.922 37.9453 162.099 37.7651C162.279 37.5849 162.368 37.3768 162.368 37.1366C162.368 36.8963 162.279 36.6882 162.099 36.508C161.92 36.3278 161.71 36.2377 161.473 36.2377H160.636H157.727Z" fill="#4D4D4D"/>
<path d="M161.473 38.1791H156.606C156.328 38.1791 156.085 38.074 155.877 37.8659C155.67 37.66 155.568 37.4133 155.568 37.1344C155.568 36.8577 155.672 36.611 155.877 36.4029C156.085 36.1948 156.328 36.0919 156.606 36.0919H161.473C161.751 36.0919 161.994 36.197 162.202 36.4029C162.407 36.611 162.511 36.8556 162.511 37.1344C162.511 37.4133 162.407 37.66 162.202 37.8659C161.997 38.074 161.751 38.1791 161.473 38.1791ZM156.608 36.3815C156.407 36.3815 156.236 36.4565 156.082 36.6089C155.931 36.7633 155.856 36.9349 155.856 37.1366C155.856 37.3382 155.931 37.5098 156.082 37.6643C156.234 37.8187 156.407 37.8917 156.608 37.8917H161.475C161.676 37.8917 161.849 37.8166 162.001 37.6643C162.152 37.512 162.227 37.3382 162.227 37.1366C162.227 36.9349 162.152 36.7633 162.001 36.6089C161.847 36.4565 161.676 36.3815 161.475 36.3815H156.608Z" fill="#4D4D4D"/>
<path d="M171.187 49.2763C169.933 49.2763 168.814 48.976 167.83 48.3775C166.845 47.7789 166.061 46.9616 165.48 45.9276C164.897 44.8936 164.607 43.7331 164.607 42.4438C164.607 41.1545 164.897 40.0154 165.48 39.0265C166.061 38.0375 166.845 37.2503 167.83 36.6668C168.814 36.0811 169.933 35.7894 171.187 35.7894C172.441 35.7894 173.567 36.0811 174.568 36.6668C175.568 37.2503 176.358 38.0375 176.941 39.0265C177.524 40.0154 177.815 41.1545 177.815 42.4438C177.815 43.7331 177.524 44.8936 176.941 45.9276C176.358 46.9616 175.568 47.7789 174.568 48.3775C173.567 48.976 172.441 49.2763 171.187 49.2763ZM171.187 47.4336C172.59 47.4336 173.71 46.9552 174.545 45.9941C175.38 45.0352 175.799 43.8511 175.799 42.4417C175.799 41.0923 175.38 39.9532 174.545 39.0243C173.71 38.0955 172.59 37.63 171.187 37.63C169.814 37.63 168.718 38.0955 167.898 39.0243C167.078 39.9532 166.668 41.0923 166.668 42.4417C166.668 43.8511 167.078 45.0352 167.898 45.9941C168.718 46.953 169.814 47.4336 171.187 47.4336Z" fill="#4D4D4D"/>
<path d="M171.187 49.42C169.914 49.42 168.759 49.1111 167.755 48.4997C166.753 47.8905 165.946 47.0496 165.354 45.9963C164.763 44.9451 164.464 43.7502 164.464 42.4417C164.464 41.1331 164.765 39.9575 165.356 38.9514C165.948 37.9453 166.755 37.1344 167.757 36.5402C168.759 35.9438 169.912 35.6435 171.187 35.6435C172.46 35.6435 173.622 35.946 174.639 36.5402C175.655 37.1344 176.471 37.9453 177.063 38.9514C177.655 39.9575 177.956 41.1331 177.956 42.4417C177.956 43.7502 177.657 44.9451 177.065 45.9963C176.473 47.0474 175.658 47.8905 174.641 48.4997C173.622 49.1111 172.46 49.42 171.187 49.42ZM171.187 35.931C169.965 35.931 168.861 36.2184 167.902 36.7869C166.943 37.3554 166.17 38.1341 165.602 39.0973C165.036 40.0583 164.75 41.1846 164.75 42.4417C164.75 43.6988 165.038 44.8486 165.604 45.8547C166.172 46.8629 166.945 47.6695 167.902 48.253C168.859 48.8365 169.963 49.1326 171.185 49.1326C172.405 49.1326 173.517 48.8365 174.491 48.253C175.465 47.6695 176.245 46.8629 176.813 45.8547C177.379 44.8486 177.667 43.6988 177.667 42.4417C177.667 41.1846 177.381 40.0605 176.815 39.0973C176.249 38.1341 175.467 37.3575 174.493 36.789C173.522 36.2206 172.409 35.931 171.187 35.931ZM171.187 47.5773C169.778 47.5773 168.633 47.0753 167.789 46.0885C166.95 45.1082 166.522 43.8811 166.522 42.4417C166.522 41.0623 166.95 39.8803 167.789 38.93C168.635 37.9732 169.778 37.4884 171.187 37.4884C172.625 37.4884 173.791 37.9732 174.652 38.93C175.508 39.8824 175.942 41.0644 175.942 42.4438C175.942 43.8811 175.508 45.1082 174.654 46.0907C173.793 47.0753 172.627 47.5773 171.187 47.5773ZM171.187 37.7758C169.863 37.7758 168.793 38.2285 168.005 39.1209C167.212 40.0197 166.809 41.1352 166.809 42.4417C166.809 43.8082 167.212 44.973 168.005 45.8997C168.793 46.8222 169.863 47.2877 171.185 47.2877C172.537 47.2877 173.631 46.82 174.436 45.8976C175.243 44.9709 175.653 43.806 175.653 42.4417C175.653 41.1374 175.243 40.0197 174.438 39.1209C173.635 38.2285 172.541 37.7758 171.187 37.7758Z" fill="#4D4D4D"/>
<path d="M183.184 42.4867V48.2423C183.184 48.5426 183.095 48.7893 182.915 48.9846C182.736 49.1798 182.497 49.2763 182.2 49.2763C181.901 49.2763 181.655 49.1776 181.461 48.9846C181.266 48.7893 181.17 48.5426 181.17 48.2423V37.0014C181.17 36.6711 181.275 36.4244 181.484 36.2592C181.694 36.094 181.933 36.0125 182.2 36.0125C182.439 36.0125 182.661 36.0961 182.87 36.2592C183.08 36.4244 183.184 36.6711 183.184 37.0014V38.0805C183.543 37.3318 184.139 36.7612 184.974 36.3707C185.809 35.9824 186.6 35.7872 187.347 35.7872C187.794 35.7872 188.242 35.8623 188.691 36.0125C188.987 36.1026 189.205 36.2678 189.34 36.508C189.474 36.7483 189.496 37.0186 189.406 37.3168C189.197 37.9174 188.793 38.1555 188.197 38.0354C187.661 37.8852 187.213 37.8102 186.854 37.8102C185.69 37.8102 184.786 38.2542 184.145 39.1359C183.505 40.0219 183.184 41.1374 183.184 42.4867Z" fill="#4D4D4D"/>
<path d="M182.2 49.42C181.864 49.42 181.58 49.3085 181.36 49.0854C181.14 48.8644 181.027 48.5813 181.027 48.2423V37.0014C181.027 36.626 181.151 36.3385 181.394 36.1455C181.839 35.7937 182.462 35.7551 182.96 36.1455C183.204 36.3385 183.327 36.626 183.327 37.0014V37.5442C183.703 36.995 184.235 36.5574 184.914 36.2399C185.767 35.843 186.585 35.6414 187.347 35.6414C187.806 35.6414 188.274 35.7186 188.735 35.873C189.064 35.9717 189.312 36.1626 189.464 36.4329C189.618 36.7075 189.643 37.0186 189.543 37.3554C189.308 38.029 188.832 38.31 188.167 38.1748C187.633 38.0268 187.195 37.9517 186.852 37.9517C185.741 37.9517 184.87 38.3786 184.259 39.2196C183.637 40.0734 183.323 41.1717 183.323 42.4846V48.2402C183.323 48.577 183.221 48.858 183.016 49.0789C182.815 49.3063 182.537 49.42 182.2 49.42ZM182.2 36.1562C181.965 36.1562 181.755 36.2291 181.572 36.3729C181.399 36.5102 181.313 36.7161 181.313 37.0014V48.2423C181.313 48.5062 181.394 48.7143 181.563 48.8816C181.732 49.0489 181.939 49.1326 182.2 49.1326C182.458 49.1326 182.659 49.0511 182.811 48.8859C182.966 48.7185 183.041 48.5062 183.041 48.2423V42.4867C183.041 41.1116 183.374 39.9575 184.032 39.0522C184.699 38.1319 185.649 37.6664 186.856 37.6664C187.223 37.6664 187.689 37.7437 188.238 37.896C188.755 38.0032 189.088 37.8016 189.274 37.2674C189.351 37.0121 189.331 36.7826 189.216 36.5767C189.099 36.3686 188.915 36.2291 188.65 36.1498C188.214 36.0039 187.776 35.931 187.349 35.931C186.627 35.931 185.85 36.1219 185.036 36.5016C184.235 36.8749 183.656 37.4283 183.315 38.1427L183.041 38.7133V37.0014C183.041 36.7161 182.956 36.5102 182.783 36.3729C182.597 36.227 182.405 36.1562 182.2 36.1562Z" fill="#4D4D4D"/>
<path d="M193.033 37.9024C192.661 37.9024 192.364 37.7908 192.142 37.5699C191.92 37.3468 191.811 37.0615 191.811 36.7097C191.811 36.3364 191.922 36.0382 192.142 35.8151C192.364 35.5942 192.661 35.4826 193.033 35.4826C193.404 35.4826 193.701 35.5942 193.923 35.8151C194.143 36.0382 194.255 36.3364 194.255 36.7097C194.255 37.0615 194.143 37.3468 193.923 37.5699C193.701 37.793 193.404 37.9024 193.033 37.9024ZM193.167 49.2763C192.868 49.2763 192.623 49.1776 192.428 48.9845C192.234 48.7893 192.138 48.5426 192.138 48.2423V40.2364C192.138 39.906 192.243 39.6593 192.452 39.4941C192.661 39.329 192.898 39.2474 193.167 39.2474C193.407 39.2474 193.629 39.3311 193.838 39.4941C194.047 39.6593 194.152 39.906 194.152 40.2364V48.2423C194.152 48.5426 194.062 48.7893 193.883 48.9845C193.703 49.1776 193.464 49.2763 193.167 49.2763Z" fill="#4D4D4D"/>
<path d="M193.167 49.42C192.83 49.42 192.548 49.3085 192.328 49.0854C192.108 48.8644 191.995 48.5812 191.995 48.2423V40.2364C191.995 39.8631 192.119 39.5735 192.362 39.3804C192.806 39.0308 193.432 38.99 193.928 39.3804C194.171 39.5757 194.295 39.8631 194.295 40.2364V48.2423C194.295 48.5769 194.193 48.8601 193.988 49.0811C193.78 49.3063 193.505 49.42 193.167 49.42ZM193.167 39.3912C192.93 39.3912 192.725 39.462 192.539 39.6078C192.366 39.7451 192.281 39.9511 192.281 40.2364V48.2423C192.281 48.5062 192.362 48.7142 192.531 48.8816C192.697 49.0489 192.907 49.1326 193.167 49.1326C193.426 49.1326 193.627 49.051 193.778 48.8859C193.932 48.7164 194.009 48.5062 194.009 48.2423V40.2364C194.009 39.9511 193.923 39.7451 193.75 39.6078C193.565 39.462 193.372 39.3912 193.167 39.3912ZM193.033 38.0483C192.623 38.0483 192.29 37.9217 192.04 37.6729C191.792 37.424 191.666 37.1001 191.666 36.7118C191.666 36.2999 191.792 35.9653 192.04 35.7143C192.29 35.4654 192.623 35.3389 193.033 35.3389C193.443 35.3389 193.776 35.4654 194.024 35.7143C194.272 35.9653 194.398 36.2999 194.398 36.7118C194.398 37.1001 194.272 37.424 194.024 37.6729C193.776 37.9217 193.441 38.0483 193.033 38.0483ZM193.033 35.6263C192.697 35.6263 192.439 35.7207 192.243 35.9181C192.048 36.1154 191.952 36.375 191.952 36.7118C191.952 37.025 192.046 37.2738 192.243 37.4691C192.437 37.6643 192.695 37.7608 193.033 37.7608C193.368 37.7608 193.627 37.6664 193.823 37.4691C194.017 37.2717 194.114 37.025 194.114 36.7118C194.114 36.375 194.02 36.1154 193.823 35.9181C193.627 35.7207 193.368 35.6263 193.033 35.6263Z" fill="#4D4D4D"/>
<path d="M204.088 49.2763C202.834 49.2763 201.715 48.976 200.73 48.3775C199.746 47.7789 198.962 46.9616 198.381 45.9276C197.798 44.8936 197.507 43.7331 197.507 42.4438C197.507 41.1545 197.798 40.0154 198.381 39.0265C198.962 38.0375 199.746 37.2503 200.73 36.6668C201.715 36.0811 202.834 35.7894 204.088 35.7894C205.342 35.7894 206.467 36.0811 207.469 36.6668C208.469 37.2503 209.259 38.0375 209.842 39.0265C210.425 40.0154 210.716 41.1545 210.716 42.4438C210.716 43.7331 210.425 44.8936 209.842 45.9276C209.259 46.9616 208.469 47.7789 207.469 48.3775C206.467 48.976 205.342 49.2763 204.088 49.2763ZM204.088 47.4336C205.491 47.4336 206.61 46.9552 207.446 45.9941C208.281 45.0352 208.699 43.8511 208.699 42.4417C208.699 41.0923 208.281 39.9532 207.446 39.0243C206.61 38.0955 205.491 37.63 204.088 37.63C202.715 37.63 201.619 38.0955 200.799 39.0243C199.979 39.9532 199.568 41.0923 199.568 42.4417C199.568 43.8511 199.979 45.0352 200.799 45.9941C201.619 46.953 202.717 47.4336 204.088 47.4336Z" fill="#4D4D4D"/>
<path d="M204.088 49.42C202.815 49.42 201.66 49.1111 200.656 48.4997C199.654 47.8905 198.847 47.0496 198.255 45.9963C197.663 44.9451 197.364 43.7502 197.364 42.4417C197.364 41.1331 197.665 39.9575 198.257 38.9514C198.849 37.9453 199.656 37.1344 200.658 36.5402C201.66 35.9438 202.813 35.6435 204.088 35.6435C205.361 35.6435 206.523 35.946 207.54 36.5402C208.556 37.1344 209.372 37.9453 209.964 38.9514C210.555 39.9575 210.857 41.1331 210.857 42.4417C210.857 43.7502 210.558 44.9451 209.966 45.9963C209.374 47.0474 208.558 47.8905 207.542 48.4997C206.523 49.1111 205.361 49.42 204.088 49.42ZM204.088 35.931C202.866 35.931 201.762 36.2184 200.803 36.7869C199.844 37.3554 199.071 38.1341 198.503 39.0973C197.937 40.0583 197.651 41.1846 197.651 42.4417C197.651 43.6988 197.939 44.8486 198.505 45.8547C199.073 46.8629 199.846 47.6695 200.803 48.253C201.76 48.8365 202.864 49.1326 204.086 49.1326C205.308 49.1326 206.418 48.8365 207.392 48.253C208.366 47.6695 209.146 46.8629 209.714 45.8547C210.28 44.8486 210.568 43.6988 210.568 42.4417C210.568 41.1846 210.282 40.0605 209.716 39.0973C209.15 38.1341 208.368 37.3575 207.394 36.789C206.423 36.2206 205.31 35.931 204.088 35.931ZM204.088 47.5773C202.678 47.5773 201.534 47.0753 200.69 46.0885C199.85 45.1082 199.423 43.8811 199.423 42.4417C199.423 41.0623 199.85 39.8803 200.69 38.93C201.536 37.9732 202.678 37.4884 204.088 37.4884C205.525 37.4884 206.692 37.9732 207.552 38.93C208.409 39.8824 208.842 41.0644 208.842 42.4438C208.842 43.8811 208.409 45.1082 207.555 46.0907C206.694 47.0753 205.528 47.5773 204.088 47.5773ZM204.088 37.7758C202.764 37.7758 201.694 38.2285 200.906 39.1209C200.113 40.0197 199.71 41.1352 199.71 42.4417C199.71 43.8082 200.113 44.973 200.906 45.8997C201.694 46.8222 202.764 47.2877 204.086 47.2877C205.438 47.2877 206.531 46.82 207.337 45.8976C208.144 44.9709 208.554 43.806 208.554 42.4417C208.554 41.1374 208.144 40.0197 207.339 39.1209C206.536 38.2285 205.442 37.7758 204.088 37.7758Z" fill="#4D4D4D"/>
<path d="M218.413 49.2763C216.384 49.2763 214.742 48.6907 213.49 47.5237C213.281 47.3134 213.176 47.0732 213.176 46.805C213.176 46.5047 213.296 46.2644 213.535 46.0864C213.774 45.9062 213.966 45.8161 214.116 45.8161C214.355 45.8161 214.654 45.9662 215.011 46.2644C215.457 46.6549 215.974 46.9552 216.555 47.1633C217.136 47.3735 217.8 47.4786 218.548 47.4786C219.592 47.4786 220.376 47.2834 220.897 46.8951C221.418 46.5047 221.681 45.9813 221.681 45.3205C221.681 44.6319 221.397 44.1299 220.831 43.8146C220.263 43.4993 219.458 43.2826 218.413 43.1625C217.845 43.1024 217.166 42.9973 216.376 42.8471C215.583 42.6969 214.891 42.3902 214.293 41.9247C213.695 41.4613 213.398 40.7491 213.398 39.788C213.398 38.5588 213.847 37.5849 214.742 36.8663C215.637 36.1476 216.89 35.7872 218.503 35.7872C219.428 35.7872 220.293 35.8988 221.098 36.124C221.903 36.3493 222.486 36.626 222.843 36.9564C223.082 37.1366 223.202 37.3768 223.202 37.675C223.202 37.8852 223.112 38.1019 222.933 38.3272C222.753 38.5524 222.544 38.664 222.307 38.664C222.187 38.664 222.068 38.6339 221.948 38.5739C221.828 38.5138 221.709 38.4537 221.589 38.3937C221.051 38.0933 220.566 37.8852 220.135 37.763C219.701 37.6428 219.186 37.5828 218.59 37.5828C217.636 37.5828 216.867 37.7565 216.286 38.0998C215.705 38.443 215.412 38.9621 215.412 39.6508C215.412 40.1313 215.613 40.4831 216.017 40.7083C216.42 40.9336 217.217 41.1202 218.411 41.2704C218.828 41.3304 219.336 41.4205 219.932 41.5407C220.528 41.6608 221.111 41.8474 221.677 42.1027C222.243 42.358 222.721 42.7313 223.11 43.2268C223.499 43.7224 223.693 44.3745 223.693 45.1832C223.693 46.4124 223.23 47.4014 222.305 48.1501C221.382 48.9009 220.083 49.2763 218.413 49.2763Z" fill="#4D4D4D"/>
<path d="M218.413 49.42C216.356 49.42 214.667 48.8172 213.392 47.6288C213.153 47.3885 213.033 47.1118 213.033 46.8029C213.033 46.4553 213.172 46.1743 213.449 45.9684C213.714 45.7689 213.932 45.6702 214.118 45.6702C214.394 45.6702 214.716 45.8268 215.105 46.1529C215.538 46.5326 216.042 46.8243 216.606 47.0281C217.17 47.2319 217.824 47.3349 218.55 47.3349C219.558 47.3349 220.321 47.1482 220.814 46.7793C221.301 46.4146 221.538 45.9383 221.538 45.3205C221.538 44.6813 221.284 44.2308 220.763 43.9412C220.216 43.6387 219.421 43.4242 218.398 43.3062C217.828 43.2461 217.138 43.141 216.352 42.9908C215.54 42.8364 214.821 42.5189 214.21 42.0405C213.58 41.5493 213.259 40.7941 213.259 39.7902C213.259 38.5224 213.729 37.4991 214.656 36.7547C215.575 36.0189 216.869 35.6435 218.507 35.6435C219.441 35.6435 220.327 35.7593 221.141 35.9867C221.976 36.2206 222.567 36.5037 222.945 36.8512C223.21 37.0508 223.349 37.3296 223.349 37.6772C223.349 37.9196 223.249 38.1684 223.05 38.4194C222.736 38.8098 222.294 38.9128 221.888 38.7047L221.529 38.5267C221 38.2306 220.521 38.0247 220.101 37.9067C219.68 37.7908 219.174 37.7329 218.595 37.7329C217.67 37.7329 216.92 37.9003 216.363 38.2306C215.822 38.5503 215.56 39.0179 215.56 39.6572C215.56 40.0841 215.733 40.3887 216.089 40.5882C216.476 40.8027 217.264 40.9872 218.432 41.1331C218.849 41.1931 219.364 41.2854 219.964 41.4034C220.568 41.5235 221.164 41.7166 221.741 41.974C222.328 42.2379 222.828 42.6304 223.227 43.141C223.635 43.6601 223.84 44.3487 223.84 45.1854C223.84 46.4553 223.356 47.4915 222.399 48.2659C221.448 49.0317 220.109 49.42 218.413 49.42ZM214.116 45.9577C214.035 45.9577 213.883 45.9984 213.62 46.1979C213.417 46.3502 213.319 46.5476 213.319 46.8029C213.319 47.0346 213.407 47.2383 213.59 47.4207C214.808 48.5555 216.431 49.1326 218.413 49.1326C220.043 49.1326 221.322 48.7657 222.217 48.0407C223.101 47.3242 223.552 46.3631 223.552 45.1854C223.552 44.4131 223.366 43.7867 223.001 43.319C222.629 42.8471 222.166 42.4824 221.623 42.2379C221.068 41.989 220.491 41.8024 219.908 41.6865C219.312 41.5686 218.804 41.4763 218.394 41.4184C217.174 41.2661 216.376 41.0752 215.951 40.8392C215.5 40.5882 215.271 40.1892 215.271 39.6572C215.271 38.9171 215.59 38.3529 216.215 37.9818C216.818 37.6257 217.617 37.4455 218.593 37.4455C219.197 37.4455 219.731 37.5077 220.175 37.63C220.617 37.7522 221.117 37.9689 221.662 38.2735L222.014 38.4494C222.307 38.5996 222.593 38.5288 222.824 38.2413C222.98 38.044 223.061 37.8552 223.061 37.6793C223.061 37.424 222.963 37.2267 222.76 37.0743C222.409 36.7526 221.841 36.4844 221.062 36.2656C220.271 36.0446 219.411 35.9331 218.505 35.9331C216.935 35.9331 215.699 36.2849 214.834 36.98C213.979 37.6664 213.543 38.6125 213.543 39.7902C213.543 40.6998 213.825 41.3776 214.383 41.8131C214.957 42.2615 215.637 42.5618 216.403 42.7055C217.183 42.8535 217.864 42.9587 218.428 43.0187C219.49 43.141 220.321 43.3662 220.899 43.688C221.512 44.0291 221.824 44.5783 221.824 45.3205C221.824 46.0263 221.54 46.5948 220.983 47.0088C220.438 47.4164 219.618 47.6223 218.546 47.6223C217.785 47.6223 217.1 47.5129 216.506 47.2984C215.91 47.0839 215.374 46.7728 214.917 46.3717C214.588 46.0992 214.319 45.9577 214.116 45.9577Z" fill="#4D4D4D"/>
<path fill-Rule="evenodd" clip-rule="evenodd" d="M17.3581 1.152C17.6828 4.58862 19.855 4.79027 19.4257 9.11287C18.849 12.2792 14.1244 12.1312 13.5627 9.11287C12.9348 6.44208 14.8848 5.57328 15.8887 1.10266C16.412 5.19786 14.5473 5.19786 14.6563 8.30198C15.0044 10.5373 18.1655 10.9921 18.4004 8.64307C18.8661 4.89324 16.6576 4.27542 17.3581 1.152Z" fill="#4D4D4D"/>
<path fill-Rule="evenodd" clip-rule="evenodd" d="M10.03 8.3277C10.6665 11.0242 11.8882 13.3754 14.3957 14.9585C16.3372 16.9321 18.1826 18.9164 17.0442 21.1711C17.1446 19.0559 15.5213 17.462 13.5371 15.9775C10.5747 13.6392 9.45973 11.0821 10.03 8.3277Z" fill="#4D4D4D"/>
<path fill-Rule="evenodd" clip-rule="evenodd" d="M15.6836 23.8805C16.2988 28.3018 14.1715 31.3115 9.53023 34.7374C0.258461 42.7347 0.756116 51.1375 14.7545 55.2048C15.846 55.5095 15.893 56.0565 14.6777 55.9835C1.98851 54.3103 -2.51602 44.3265 7.15302 35.4131C12.0997 31.1935 14.0027 27.1133 14.368 23.1018C14.3637 21.8747 15.2052 21.4886 15.6836 23.8805Z" fill="#CF1A1A"/>
<path fill-Rule="evenodd" clip-rule="evenodd" d="M20.9977 22.8358C20.3825 27.2571 22.5098 30.2668 27.1532 33.6927C36.425 41.69 35.9273 50.0928 21.9289 54.1601C20.8375 54.4647 20.7883 55.0118 22.0058 54.9388C34.6949 53.2634 39.1995 43.2818 29.5326 34.3663C24.5859 30.1466 22.6829 26.0665 22.3176 22.0549C22.3198 20.83 21.4782 20.4439 20.9977 22.8358Z" fill="#CF1A1A"/>
</g>
<defs>
<clipPath id="clip0_365_598">
<rect width="225" height="58" fill="white"/>
</clipPath>
</defs>
</svg>
